# This file uses centimeters as units for non-parametric coordinates.
v 1.223001 8.668999 -2.000500
v 3.498000 10.592999 -2.000500
v 1.924000 8.064999 -2.000500
v 0.211000 11.438000 -2.000500
v 2.078000 11.227001 -2.000500
v 0.295000 8.880001 -2.000500
v -0.732000 8.646999 -2.000500
v -3.114000 10.609001 -2.000500
v -1.486000 7.945999 -2.000500
v -3.919999 9.964001 -2.000500
v -2.157000 11.070000 -2.000500
v -4.558000 9.147999 -2.000500
v -1.837000 7.055000 -2.000500
v -5.015000 8.172001 -2.000500
v 4.430000 1.703999 -2.000500
v 2.089000 3.791000 -2.000500
v 4.992000 2.653000 -2.000500
v 4.540000 9.521999 -2.000500
v 2.256001 7.326000 -2.000500
v 3.702000 0.963001 -2.000500
v 2.819000 0.429001 -2.000500
v 1.656000 3.116001 -2.000500
v 0.370000 0.000000 -2.000500
v 1.035000 2.702000 -2.000500
v 1.725000 0.106998 -2.000500
v 2.385000 4.715000 -2.000500
v 5.380000 3.810001 -2.000500
v 5.275000 7.997002 -2.000500
v -1.954000 5.768002 -2.000500
v -5.380000 5.744999 -2.000500
v -1.814000 4.217999 -2.000500
v -5.172000 3.870998 -2.000500
v -0.724000 2.735001 -2.000500
v -2.577000 0.522999 -2.000500
v -1.396000 3.247002 -2.000500
v -3.641000 1.245998 -2.000500
v -1.268000 0.131001 -2.000500
v -4.550000 2.367001 -2.000500
v 0.174000 2.564999 -2.000500
v 1.223001 8.668999 2.000500
v 1.924000 8.064999 2.000500
v 3.498000 10.592999 2.000500
v 4.540000 9.521999 2.000500
v 2.078000 11.227001 2.000500
v 0.211000 11.438000 2.000500
v 0.295000 8.880001 2.000500
v -1.486000 7.945999 2.000500
v -0.732000 8.646999 2.000500
v -3.114000 10.609001 2.000500
v -3.919999 9.964001 2.000500
v -4.558000 9.147999 2.000500
v -5.015000 8.172001 2.000500
v -1.837000 7.055000 2.000500
v -2.157000 11.070000 2.000500
v 2.385000 4.715000 2.000500
v 2.089000 3.791000 2.000500
v 5.380000 3.810001 2.000500
v 5.275000 7.997002 2.000500
v 2.256001 7.326000 2.000500
v 1.656000 3.116001 2.000500
v 1.035000 2.702000 2.000500
v 2.819000 0.429001 2.000500
v 1.725000 0.106998 2.000500
v 0.370000 0.000000 2.000500
v 0.174000 2.564999 2.000500
v 4.430000 1.703999 2.000500
v 4.992000 2.653000 2.000500
v 3.702000 0.963001 2.000500
v -5.380000 5.744999 2.000500
v -1.814000 4.217999 2.000500
v -1.954000 5.768002 2.000500
v -5.172000 3.870998 2.000500
v -3.641000 1.245998 2.000500
v -2.577000 0.522999 2.000500
v -1.396000 3.247002 2.000500
v -1.268000 0.131001 2.000500
v -0.724000 2.735001 2.000500
v -4.550000 2.367001 2.000500
vn -0.289802 -0.574222 -0.765692
vn 0.426504 0.610856 -0.667045
vn -0.521554 -0.389061 -0.759350
vn -0.015294 0.734562 -0.678369
vn 0.194305 0.712513 -0.674218
vn -0.000153 -0.649313 -0.760521
vn 0.194305 0.712513 -0.674218
vn 0.426504 0.610856 -0.667045
vn -0.289802 -0.574222 -0.765692
vn -0.289802 -0.574222 -0.765692
vn -0.000153 -0.649313 -0.760521
vn 0.194305 0.712513 -0.674218
vn -0.015294 0.734562 -0.678369
vn -0.000153 -0.649313 -0.760521
vn 0.297738 -0.563559 -0.770554
vn -0.389370 0.618438 -0.682588
vn 0.536453 -0.365858 -0.760504
vn -0.520109 0.514259 -0.681927
vn -0.218990 0.704088 -0.675502
vn 0.297738 -0.563559 -0.770554
vn -0.389370 0.618438 -0.682588
vn -0.015294 0.734562 -0.678369
vn 0.297738 -0.563559 -0.770554
vn -0.218990 0.704088 -0.675502
vn 0.536453 -0.365858 -0.760504
vn -0.389370 0.618438 -0.682588
vn 0.297738 -0.563559 -0.770554
vn -0.520109 0.514259 -0.681927
vn 0.536453 -0.365858 -0.760504
vn -0.622715 0.382433 -0.682621
vn -0.622715 0.382433 -0.682621
vn 0.653938 -0.155162 -0.740466
vn -0.705261 0.213223 -0.676123
vn 0.580514 -0.446468 -0.680933
vn -0.610942 0.287762 -0.737525
vn 0.663220 -0.303456 -0.684145
vn -0.521554 -0.389061 -0.759350
vn 0.606312 0.424121 -0.672687
vn -0.362393 -0.722474 -0.588815
vn 0.426504 0.610856 -0.667045
vn 0.606312 0.424121 -0.672687
vn -0.521554 -0.389061 -0.759350
vn 0.454751 -0.575085 -0.680058
vn 0.295939 -0.671543 -0.679301
vn -0.466729 0.458567 -0.756228
vn -0.000363 -0.724092 -0.689703
vn -0.237436 0.606937 -0.758454
vn 0.132322 -0.716877 -0.684528
vn -0.610942 0.287762 -0.737525
vn 0.580514 -0.446468 -0.680933
vn -0.466729 0.458567 -0.756228
vn 0.132322 -0.716877 -0.684528
vn -0.237436 0.606937 -0.758454
vn 0.295939 -0.671543 -0.679301
vn -0.237436 0.606937 -0.758454
vn -0.466729 0.458567 -0.756228
vn 0.295939 -0.671543 -0.679301
vn 0.580514 -0.446468 -0.680933
vn 0.454751 -0.575085 -0.680058
vn -0.466729 0.458567 -0.756228
vn -0.379405 0.722292 -0.578227
vn 0.726379 0.375297 -0.575783
vn -0.610942 0.287762 -0.737525
vn 0.663220 -0.303456 -0.684145
vn -0.610942 0.287762 -0.737525
vn 0.726379 0.375297 -0.575783
vn 0.741681 -0.359634 -0.566192
vn -0.362393 -0.722474 -0.588815
vn 0.606312 0.424121 -0.672687
vn 0.653938 -0.155162 -0.740466
vn -0.622715 0.382433 -0.682621
vn 0.536453 -0.365858 -0.760504
vn 0.685583 -0.000200 -0.727995
vn -0.733927 0.014215 -0.679079
vn 0.653938 -0.155162 -0.740466
vn 0.647312 0.164109 -0.744349
vn -0.712999 -0.183078 -0.676842
vn 0.685583 -0.000200 -0.727995
vn 0.263181 0.590782 -0.762701
vn -0.317116 -0.666829 -0.674371
vn 0.503837 0.393550 -0.768939
vn -0.498769 -0.542801 -0.675719
vn 0.503837 0.393550 -0.768939
vn -0.317116 -0.666829 -0.674371
vn -0.134438 -0.716855 -0.684139
vn -0.317116 -0.666829 -0.674371
vn 0.263181 0.590782 -0.762701
vn -0.633225 -0.376776 -0.676067
vn 0.503837 0.393550 -0.768939
vn -0.498769 -0.542801 -0.675719
vn -0.000363 -0.724092 -0.689703
vn -0.134438 -0.716855 -0.684139
vn 0.009726 0.663801 -0.747846
vn -0.237436 0.606937 -0.758454
vn -0.000363 -0.724092 -0.689703
vn 0.009726 0.663801 -0.747846
vn 0.263181 0.590782 -0.762701
vn 0.009726 0.663801 -0.747846
vn -0.134438 -0.716855 -0.684139
vn -0.712999 -0.183078 -0.676842
vn 0.647312 0.164109 -0.744349
vn -0.633225 -0.376776 -0.676067
vn -0.733927 0.014215 -0.679079
vn 0.685583 -0.000200 -0.727995
vn -0.712999 -0.183078 -0.676842
vn -0.705261 0.213223 -0.676123
vn 0.653938 -0.155162 -0.740466
vn -0.733927 0.014215 -0.679079
vn 0.647312 0.164109 -0.744349
vn 0.503837 0.393550 -0.768939
vn -0.633225 -0.376776 -0.676067
vn -0.289801 -0.574222 0.765692
vn -0.521554 -0.389061 0.759350
vn 0.426504 0.610856 0.667045
vn 0.606312 0.424121 0.672687
vn 0.426504 0.610856 0.667045
vn -0.521554 -0.389061 0.759350
vn 0.194305 0.712513 0.674218
vn -0.015294 0.734562 0.678369
vn -0.000153 -0.649313 0.760521
vn -0.000153 -0.649313 0.760521
vn -0.289801 -0.574222 0.765692
vn 0.194305 0.712513 0.674218
vn 0.426504 0.610856 0.667045
vn 0.194305 0.712513 0.674218
vn -0.289801 -0.574222 0.765692
vn 0.536453 -0.365858 0.760504
vn 0.297738 -0.563559 0.770554
vn -0.389370 0.618438 0.682588
vn -0.520109 0.514259 0.681927
vn 0.536453 -0.365858 0.760504
vn -0.389370 0.618438 0.682588
vn -0.622715 0.382433 0.682621
vn 0.536453 -0.365858 0.760504
vn -0.520109 0.514259 0.681927
vn -0.705261 0.213223 0.676123
vn 0.653938 -0.155162 0.740466
vn -0.622715 0.382433 0.682621
vn -0.218989 0.704088 0.675502
vn -0.389370 0.618438 0.682588
vn 0.297738 -0.563559 0.770554
vn -0.015294 0.734562 0.678369
vn -0.218989 0.704088 0.675502
vn 0.297738 -0.563559 0.770554
vn 0.297738 -0.563559 0.770554
vn -0.000153 -0.649313 0.760521
vn -0.015294 0.734562 0.678369
vn -0.379405 0.722292 0.578227
vn -0.610942 0.287762 0.737525
vn 0.726379 0.375297 0.575783
vn 0.741681 -0.359634 0.566192
vn 0.606312 0.424121 0.672687
vn -0.362394 -0.722474 0.588815
vn -0.466729 0.458567 0.756228
vn -0.237436 0.606937 0.758454
vn 0.295939 -0.671543 0.679301
vn 0.132322 -0.716877 0.684528
vn 0.295939 -0.671543 0.679301
vn -0.237436 0.606937 0.758454
vn -0.000363 -0.724092 0.689703
vn 0.132322 -0.716877 0.684528
vn -0.237436 0.606937 0.758454
vn -0.237436 0.606937 0.758454
vn 0.009726 0.663801 0.747846
vn -0.000363 -0.724092 0.689703
vn -0.610942 0.287762 0.737525
vn -0.466729 0.458567 0.756228
vn 0.580514 -0.446468 0.680933
vn 0.580514 -0.446468 0.680933
vn 0.663220 -0.303456 0.684145
vn -0.610942 0.287762 0.737525
vn 0.663220 -0.303456 0.684145
vn 0.726379 0.375297 0.575783
vn -0.610942 0.287762 0.737525
vn 0.454751 -0.575085 0.680058
vn 0.580514 -0.446468 0.680933
vn -0.466729 0.458567 0.756228
vn 0.295939 -0.671543 0.679301
vn 0.454751 -0.575085 0.680058
vn -0.466729 0.458567 0.756228
vn -0.362394 -0.722474 0.588815
vn 0.606312 0.424121 0.672687
vn -0.521554 -0.389061 0.759350
vn 0.536453 -0.365858 0.760504
vn -0.622715 0.382433 0.682621
vn 0.653938 -0.155162 0.740466
vn -0.705261 0.213223 0.676123
vn -0.733927 0.014215 0.679079
vn 0.653938 -0.155162 0.740466
vn 0.647312 0.164109 0.744349
vn 0.685583 -0.000200 0.727995
vn -0.712999 -0.183078 0.676842
vn -0.498769 -0.542801 0.675719
vn -0.317116 -0.666829 0.674371
vn 0.503837 0.393550 0.768939
vn -0.134438 -0.716855 0.684139
vn -0.000363 -0.724092 0.689703
vn 0.009726 0.663801 0.747846
vn 0.009726 0.663801 0.747846
vn 0.263181 0.590782 0.762701
vn -0.134438 -0.716855 0.684139
vn -0.633225 -0.376776 0.676067
vn -0.498769 -0.542801 0.675719
vn 0.503837 0.393550 0.768939
vn 0.263181 0.590782 0.762701
vn 0.503837 0.393550 0.768939
vn -0.317116 -0.666829 0.674371
vn -0.134438 -0.716855 0.684139
vn 0.263181 0.590782 0.762701
vn -0.317116 -0.666829 0.674371
vn 0.503837 0.393550 0.768939
vn 0.647312 0.164109 0.744349
vn -0.633225 -0.376776 0.676067
vn -0.712999 -0.183078 0.676842
vn -0.633225 -0.376776 0.676067
vn 0.647312 0.164109 0.744349
vn 0.685583 -0.000200 0.727995
vn 0.653938 -0.155162 0.740466
vn -0.733927 0.014215 0.679079
vn -0.712999 -0.183078 0.676842
vn 0.685583 -0.000200 0.727995
vn -0.733927 0.014215 0.679079
vn -0.521554 -0.389061 -0.759350
vn -0.362394 -0.722474 0.588815
vn -0.521554 -0.389061 0.759350
vn -0.521554 -0.389061 -0.759350
vn -0.521554 -0.389061 0.759350
vn -0.289801 -0.574222 0.765692
vn -0.521554 -0.389061 -0.759350
vn -0.289801 -0.574222 0.765692
vn -0.289802 -0.574222 -0.765692
vn -0.289802 -0.574222 -0.765692
vn -0.289801 -0.574222 0.765692
vn -0.000153 -0.649313 0.760521
vn -0.289802 -0.574222 -0.765692
vn -0.000153 -0.649313 0.760521
vn -0.000153 -0.649313 -0.760521
vn 0.606312 0.424121 -0.672687
vn 0.606312 0.424121 0.672687
vn 0.741681 -0.359634 0.566192
vn 0.606312 0.424121 -0.672687
vn 0.741681 -0.359634 0.566192
vn 0.741681 -0.359634 -0.566192
vn 0.426504 0.610856 0.667045
vn 0.606312 0.424121 0.672687
vn 0.606312 0.424121 -0.672687
vn 0.426504 0.610856 0.667045
vn 0.606312 0.424121 -0.672687
vn 0.426504 0.610856 -0.667045
vn 0.297738 -0.563559 -0.770554
vn -0.000153 -0.649313 -0.760521
vn -0.000153 -0.649313 0.760521
vn 0.297738 -0.563559 -0.770554
vn -0.000153 -0.649313 0.760521
vn 0.297738 -0.563559 0.770554
vn 0.426504 0.610856 -0.667045
vn 0.194305 0.712513 -0.674218
vn 0.194305 0.712513 0.674218
vn 0.426504 0.610856 -0.667045
vn 0.194305 0.712513 0.674218
vn 0.426504 0.610856 0.667045
vn 0.194305 0.712513 -0.674218
vn -0.015294 0.734562 -0.678369
vn 0.194305 0.712513 0.674218
vn 0.536453 -0.365858 -0.760504
vn 0.297738 -0.563559 -0.770554
vn 0.297738 -0.563559 0.770554
vn -0.015294 0.734562 -0.678369
vn -0.015294 0.734562 0.678369
vn 0.194305 0.712513 0.674218
vn -0.015294 0.734562 -0.678369
vn -0.218990 0.704088 -0.675502
vn -0.218989 0.704088 0.675502
vn -0.015294 0.734562 -0.678369
vn -0.218989 0.704088 0.675502
vn -0.015294 0.734562 0.678369
vn -0.218990 0.704088 -0.675502
vn -0.389370 0.618438 -0.682588
vn -0.389370 0.618438 0.682588
vn -0.218990 0.704088 -0.675502
vn -0.389370 0.618438 0.682588
vn -0.218989 0.704088 0.675502
vn -0.389370 0.618438 -0.682588
vn -0.520109 0.514259 -0.681927
vn -0.520109 0.514259 0.681927
vn -0.389370 0.618438 -0.682588
vn -0.520109 0.514259 0.681927
vn -0.389370 0.618438 0.682588
vn -0.520109 0.514259 -0.681927
vn -0.622715 0.382433 -0.682621
vn -0.622715 0.382433 0.682621
vn -0.520109 0.514259 -0.681927
vn -0.622715 0.382433 0.682621
vn -0.520109 0.514259 0.681927
vn -0.622715 0.382433 -0.682621
vn -0.705261 0.213223 -0.676123
vn -0.705261 0.213223 0.676123
vn -0.622715 0.382433 -0.682621
vn -0.705261 0.213223 0.676123
vn -0.622715 0.382433 0.682621
vn 0.663220 -0.303456 0.684145
vn 0.580514 -0.446468 0.680933
vn 0.663220 -0.303456 -0.684145
vn 0.580514 -0.446468 -0.680933
vn 0.663220 -0.303456 -0.684145
vn 0.580514 -0.446468 0.680933
vn 0.663220 -0.303456 -0.684145
vn 0.726379 0.375297 -0.575783
vn 0.726379 0.375297 0.575783
vn 0.663220 -0.303456 -0.684145
vn 0.726379 0.375297 0.575783
vn 0.663220 -0.303456 0.684145
vn 0.726379 0.375297 -0.575783
vn -0.379405 0.722292 0.578227
vn 0.726379 0.375297 0.575783
vn 0.741681 -0.359634 0.566192
vn -0.362394 -0.722474 0.588815
vn 0.741681 -0.359634 -0.566192
vn -0.521554 -0.389061 -0.759350
vn -0.362393 -0.722474 -0.588815
vn -0.362394 -0.722474 0.588815
vn 0.741681 -0.359634 -0.566192
vn -0.362394 -0.722474 0.588815
vn -0.362393 -0.722474 -0.588815
vn -0.237436 0.606937 -0.758454
vn 0.009726 0.663801 0.747846
vn -0.237436 0.606937 0.758454
vn -0.466729 0.458567 -0.756228
vn -0.237436 0.606937 -0.758454
vn -0.237436 0.606937 0.758454
vn -0.466729 0.458567 -0.756228
vn -0.237436 0.606937 0.758454
vn -0.466729 0.458567 0.756228
vn -0.610942 0.287762 -0.737525
vn -0.466729 0.458567 -0.756228
vn -0.466729 0.458567 0.756228
vn -0.610942 0.287762 -0.737525
vn -0.466729 0.458567 0.756228
vn -0.610942 0.287762 0.737525
vn -0.000363 -0.724092 -0.689703
vn -0.000363 -0.724092 0.689703
vn -0.134438 -0.716855 -0.684139
vn -0.000363 -0.724092 -0.689703
vn 0.132322 -0.716877 -0.684528
vn -0.000363 -0.724092 0.689703
vn 0.132322 -0.716877 0.684528
vn -0.000363 -0.724092 0.689703
vn 0.132322 -0.716877 -0.684528
vn -0.379405 0.722292 0.578227
vn -0.379405 0.722292 -0.578227
vn -0.610942 0.287762 -0.737525
vn -0.379405 0.722292 0.578227
vn -0.610942 0.287762 -0.737525
vn -0.610942 0.287762 0.737525
vn 0.295939 -0.671543 -0.679301
vn 0.295939 -0.671543 0.679301
vn 0.132322 -0.716877 0.684528
vn 0.295939 -0.671543 -0.679301
vn 0.132322 -0.716877 0.684528
vn 0.132322 -0.716877 -0.684528
vn 0.454751 -0.575085 -0.680058
vn 0.454751 -0.575085 0.680058
vn 0.295939 -0.671543 0.679301
vn 0.454751 -0.575085 -0.680058
vn 0.295939 -0.671543 0.679301
vn 0.295939 -0.671543 -0.679301
vn 0.580514 -0.446468 -0.680933
vn 0.580514 -0.446468 0.680933
vn 0.454751 -0.575085 0.680058
vn 0.580514 -0.446468 -0.680933
vn 0.454751 -0.575085 0.680058
vn 0.454751 -0.575085 -0.680058
vn 0.726379 0.375297 -0.575783
vn -0.379405 0.722292 -0.578227
vn -0.379405 0.722292 0.578227
vn 0.297738 -0.563559 0.770554
vn 0.536453 -0.365858 0.760504
vn 0.536453 -0.365858 -0.760504
vn 0.536453 -0.365858 -0.760504
vn 0.536453 -0.365858 0.760504
vn 0.653938 -0.155162 0.740466
vn 0.536453 -0.365858 -0.760504
vn 0.653938 -0.155162 0.740466
vn 0.653938 -0.155162 -0.740466
vn 0.653938 -0.155162 -0.740466
vn 0.653938 -0.155162 0.740466
vn 0.685583 -0.000200 0.727995
vn 0.653938 -0.155162 -0.740466
vn 0.685583 -0.000200 0.727995
vn 0.685583 -0.000200 -0.727995
vn 0.685583 -0.000200 -0.727995
vn 0.685583 -0.000200 0.727995
vn 0.647312 0.164109 0.744349
vn 0.685583 -0.000200 -0.727995
vn 0.647312 0.164109 0.744349
vn 0.647312 0.164109 -0.744349
vn 0.647312 0.164109 -0.744349
vn 0.647312 0.164109 0.744349
vn 0.503837 0.393550 0.768939
vn 0.647312 0.164109 -0.744349
vn 0.503837 0.393550 0.768939
vn 0.503837 0.393550 -0.768939
vn 0.263181 0.590782 -0.762701
vn 0.503837 0.393550 -0.768939
vn 0.503837 0.393550 0.768939
vn 0.263181 0.590782 -0.762701
vn 0.503837 0.393550 0.768939
vn 0.263181 0.590782 0.762701
vn 0.009726 0.663801 -0.747846
vn 0.263181 0.590782 -0.762701
vn 0.263181 0.590782 0.762701
vn 0.009726 0.663801 -0.747846
vn 0.263181 0.590782 0.762701
vn 0.009726 0.663801 0.747846
vn -0.237436 0.606937 -0.758454
vn 0.009726 0.663801 -0.747846
vn 0.009726 0.663801 0.747846
vn -0.633225 -0.376776 -0.676067
vn -0.498769 -0.542801 -0.675719
vn -0.498769 -0.542801 0.675719
vn -0.633225 -0.376776 -0.676067
vn -0.498769 -0.542801 0.675719
vn -0.633225 -0.376776 0.676067
vn -0.317116 -0.666829 -0.674371
vn -0.317116 -0.666829 0.674371
vn -0.498769 -0.542801 0.675719
vn -0.317116 -0.666829 -0.674371
vn -0.498769 -0.542801 0.675719
vn -0.498769 -0.542801 -0.675719
vn -0.134438 -0.716855 -0.684139
vn -0.134438 -0.716855 0.684139
vn -0.317116 -0.666829 0.674371
vn -0.134438 -0.716855 -0.684139
vn -0.317116 -0.666829 0.674371
vn -0.317116 -0.666829 -0.674371
vn -0.000363 -0.724092 0.689703
vn -0.134438 -0.716855 0.684139
vn -0.134438 -0.716855 -0.684139
vn -0.733927 0.014215 0.679079
vn -0.705261 0.213223 0.676123
vn -0.733927 0.014215 -0.679079
vn -0.705261 0.213223 -0.676123
vn -0.733927 0.014215 -0.679079
vn -0.705261 0.213223 0.676123
vn -0.733927 0.014215 0.679079
vn -0.733927 0.014215 -0.679079
vn -0.712999 -0.183078 -0.676842
vn -0.733927 0.014215 0.679079
vn -0.712999 -0.183078 -0.676842
vn -0.712999 -0.183078 0.676842
vn -0.712999 -0.183078 -0.676842
vn -0.633225 -0.376776 -0.676067
vn -0.633225 -0.376776 0.676067
vn -0.712999 -0.183078 -0.676842
vn -0.633225 -0.376776 0.676067
vn -0.712999 -0.183078 0.676842
f 1//1 2//2 3//3
f 4//4 5//5 6//6
f 5//7 2//8 1//9
f 1//10 6//11 5//12
f 4//13 6//14 7//15
f 8//16 9//17 10//18
f 11//19 7//20 8//21
f 4//22 7//23 11//24
f 9//25 8//26 7//27
f 10//28 9//29 12//30
f 12//31 13//32 14//33
f 15//34 16//35 17//36
f 3//37 18//38 19//39
f 2//40 18//41 3//42
f 20//43 21//44 22//45
f 23//46 24//47 25//48
f 16//49 15//50 22//51
f 25//52 24//53 21//54
f 24//55 22//56 21//57
f 15//58 20//59 22//60
f 26//61 27//62 16//63
f 17//64 16//65 27//66
f 28//67 19//68 18//69
f 13//70 12//71 9//72
f 29//73 30//74 13//75
f 31//76 32//77 29//78
f 33//79 34//80 35//81
f 36//82 35//83 34//84
f 37//85 34//86 33//87
f 38//88 35//89 36//90
f 23//91 37//92 39//93
f 24//94 23//95 39//96
f 33//97 39//98 37//99
f 32//100 31//101 38//102
f 30//103 29//104 32//105
f 14//106 13//107 30//108
f 31//109 35//110 38//111
f 40//112 41//113 42//114
f 43//115 42//116 41//117
f 44//118 45//119 46//120
f 46//121 40//122 44//123
f 42//124 44//125 40//126
f 47//127 48//128 49//129
f 50//130 47//131 49//132
f 51//133 47//134 50//135
f 52//136 53//137 51//138
f 54//139 49//140 48//141
f 45//142 54//143 48//144
f 48//145 46//146 45//147
f 55//148 56//149 57//150
f 58//151 43//152 59//153
f 60//154 61//155 62//156
f 63//157 62//158 61//159
f 64//160 63//161 61//162
f 61//163 65//164 64//165
f 56//166 60//167 66//168
f 66//169 67//170 56//171
f 67//172 57//173 56//174
f 68//175 66//176 60//177
f 62//178 68//179 60//180
f 59//181 43//182 41//183
f 47//184 51//185 53//186
f 52//187 69//188 53//189
f 70//190 71//191 72//192
f 73//193 74//194 75//195
f 76//196 64//197 65//198
f 65//199 77//200 76//201
f 78//202 73//203 75//204
f 77//205 75//206 74//207
f 76//208 77//209 74//210
f 75//211 70//212 78//213
f 72//214 78//215 70//216
f 71//217 53//218 69//219
f 72//220 71//221 69//222
f 3//223 59//224 41//225
f 3//226 41//227 40//228
f 3//229 40//230 1//231
f 1//232 40//233 46//234
f 1//235 46//236 6//237
f 18//238 43//239 58//240
f 18//241 58//242 28//243
f 42//244 43//245 18//246
f 42//247 18//248 2//249
f 7//250 6//251 46//252
f 7//253 46//254 48//255
f 2//256 5//257 44//258
f 2//259 44//260 42//261
f 5//262 4//263 44//264
f 9//265 7//266 48//267
f 4//268 45//269 44//270
f 4//271 11//272 54//273
f 4//274 54//275 45//276
f 11//277 8//278 49//279
f 11//280 49//281 54//282
f 8//283 10//284 50//285
f 8//286 50//287 49//288
f 10//289 12//290 51//291
f 10//292 51//293 50//294
f 12//295 14//296 52//297
f 12//298 52//299 51//300
f 67//301 66//302 17//303
f 15//304 17//305 66//306
f 17//307 27//308 57//309
f 17//310 57//311 67//312
f 27//313 55//314 57//315
f 58//316 59//317 28//318
f 3//319 19//320 59//321
f 28//322 59//323 19//324
f 24//325 65//326 61//327
f 22//328 24//329 61//330
f 22//331 61//332 60//333
f 16//334 22//335 60//336
f 16//337 60//338 56//339
f 23//340 64//341 37//342
f 23//343 25//344 64//345
f 63//346 64//347 25//348
f 55//349 26//350 16//351
f 55//352 16//353 56//354
f 21//355 62//356 63//357
f 21//358 63//359 25//360
f 20//361 68//362 62//363
f 20//364 62//365 21//366
f 15//367 66//368 68//369
f 15//370 68//371 20//372
f 27//373 26//374 55//375
f 48//376 47//377 9//378
f 9//379 47//380 53//381
f 9//382 53//383 13//384
f 13//385 53//386 71//387
f 13//388 71//389 29//390
f 29//391 71//392 70//393
f 29//394 70//395 31//396
f 31//397 70//398 75//399
f 31//400 75//401 35//402
f 33//403 35//404 75//405
f 33//406 75//407 77//408
f 39//409 33//410 77//411
f 39//412 77//413 65//414
f 24//415 39//416 65//417
f 38//418 36//419 73//420
f 38//421 73//422 78//423
f 34//424 74//425 73//426
f 34//427 73//428 36//429
f 37//430 76//431 74//432
f 37//433 74//434 34//435
f 64//436 76//437 37//438
f 69//439 52//440 30//441
f 14//442 30//443 52//444
f 69//445 30//446 32//447
f 69//448 32//449 72//450
f 32//451 38//452 78//453
f 32//454 78//455 72//456
