# This file uses centimeters as units for non-parametric coordinates.
v -5.293499 0.000000 2.000500
v -5.293499 11.062000 2.000500
v -5.293499 11.062000 -2.000500
v -5.293499 0.000000 -2.000500
v -1.874500 0.000000 -2.000500
v -1.874500 11.062000 -2.000500
v -1.874500 7.191000 -2.000500
v -1.874500 4.475000 -2.000500
v -1.874500 4.475000 2.000500
v 1.860500 0.000000 -2.000500
v 5.293499 0.000000 -2.000500
v 1.860500 0.000000 2.000500
v 5.293499 0.000000 2.000500
v -1.874500 0.000000 2.000500
v 5.293499 11.062000 -2.000500
v 1.860500 4.475000 -2.000500
v 1.860500 7.191000 -2.000500
v 1.860500 11.062000 -2.000500
v 1.860500 4.475000 2.000500
v 5.293499 11.062000 2.000500
v 1.860500 11.062000 2.000500
v -1.874500 7.191000 2.000500
v 1.860500 7.191000 2.000500
v -1.874500 11.062000 2.000500
vn -0.577350 -0.577350 0.577350
vn -0.577350 0.577350 0.577350
vn -0.577350 0.577350 -0.577350
vn -0.577350 -0.577350 0.577350
vn -0.577350 0.577350 -0.577350
vn -0.577350 -0.577350 -0.577350
vn -0.577350 -0.577350 0.577350
vn -0.577350 -0.577350 -0.577350
vn 0.577350 -0.577350 -0.577350
vn 0.577350 0.577350 -0.577350
vn 0.301511 0.301511 -0.904534
vn -0.577350 0.577350 -0.577350
vn -0.577350 0.577350 -0.577350
vn 0.301511 -0.301511 -0.904534
vn -0.577350 -0.577350 -0.577350
vn 0.577350 0.577350 -0.577350
vn -0.577350 0.577350 -0.577350
vn -0.577350 0.577350 0.577350
vn -0.577350 -0.577350 0.577350
vn 0.301511 -0.301511 0.904534
vn -0.577350 0.577350 0.577350
vn -0.577350 -0.577350 -0.577350
vn 0.577350 -0.577350 -0.577350
vn -0.577350 -0.577350 0.577350
vn 0.577350 -0.577350 0.577350
vn -0.577350 -0.577350 0.577350
vn 0.577350 -0.577350 -0.577350
vn 0.577350 -0.577350 0.577350
vn -0.577350 -0.577350 0.577350
vn 0.577350 -0.577350 -0.577350
vn 0.577350 0.577350 -0.577350
vn 0.577350 -0.577350 -0.577350
vn -0.301511 -0.301511 -0.904534
vn -0.577350 -0.577350 -0.577350
vn -0.301511 -0.301511 -0.904534
vn 0.577350 -0.577350 -0.577350
vn 0.301511 0.301511 -0.904534
vn -0.301511 0.301511 -0.904534
vn -0.301511 -0.301511 -0.904534
vn 0.301511 0.301511 -0.904534
vn -0.301511 -0.301511 -0.904534
vn 0.301511 -0.301511 -0.904534
vn -0.577350 0.577350 -0.577350
vn 0.577350 0.577350 -0.577350
vn -0.301511 0.301511 -0.904534
vn -0.301511 -0.301511 -0.904534
vn -0.301511 0.301511 -0.904534
vn 0.577350 0.577350 -0.577350
vn 0.301511 -0.301511 -0.904534
vn -0.577350 0.577350 -0.577350
vn 0.301511 0.301511 -0.904534
vn 0.577350 -0.577350 -0.577350
vn -0.577350 -0.577350 -0.577350
vn 0.301511 -0.301511 -0.904534
vn -0.301511 -0.301511 -0.904534
vn -0.577350 -0.577350 -0.577350
vn -0.577350 -0.577350 0.577350
vn -0.301511 -0.301511 -0.904534
vn -0.577350 -0.577350 0.577350
vn -0.301511 -0.301511 0.904534
vn 0.577350 -0.577350 0.577350
vn 0.577350 -0.577350 -0.577350
vn 0.577350 0.577350 -0.577350
vn -0.577350 -0.577350 0.577350
vn 0.577350 -0.577350 0.577350
vn -0.301511 -0.301511 0.904534
vn -0.301511 -0.301511 0.904534
vn 0.301511 -0.301511 0.904534
vn 0.301511 -0.301511 -0.904534
vn -0.301511 -0.301511 0.904534
vn 0.301511 -0.301511 -0.904534
vn -0.301511 -0.301511 -0.904534
vn 0.577350 0.577350 0.577350
vn 0.577350 -0.577350 0.577350
vn 0.577350 0.577350 -0.577350
vn 0.577350 0.577350 -0.577350
vn -0.577350 0.577350 -0.577350
vn -0.577350 0.577350 0.577350
vn 0.577350 0.577350 -0.577350
vn -0.577350 0.577350 0.577350
vn 0.577350 0.577350 0.577350
vn -0.301511 0.301511 -0.904534
vn 0.301511 0.301511 -0.904534
vn 0.301511 0.301511 0.904534
vn -0.301511 0.301511 -0.904534
vn 0.301511 0.301511 0.904534
vn -0.301511 0.301511 0.904534
vn 0.301511 0.301511 0.904534
vn 0.301511 -0.301511 0.904534
vn -0.301511 -0.301511 0.904534
vn 0.301511 0.301511 0.904534
vn -0.301511 -0.301511 0.904534
vn -0.301511 0.301511 0.904534
vn -0.577350 0.577350 -0.577350
vn -0.301511 0.301511 -0.904534
vn -0.301511 0.301511 0.904534
vn -0.577350 0.577350 -0.577350
vn -0.301511 0.301511 0.904534
vn -0.577350 0.577350 0.577350
vn -0.301511 0.301511 0.904534
vn -0.301511 -0.301511 0.904534
vn 0.577350 0.577350 0.577350
vn -0.577350 0.577350 0.577350
vn -0.301511 0.301511 0.904534
vn 0.577350 0.577350 0.577350
vn 0.577350 -0.577350 0.577350
vn 0.577350 0.577350 0.577350
vn -0.301511 -0.301511 0.904534
vn 0.301511 -0.301511 0.904534
vn 0.577350 -0.577350 0.577350
vn 0.577350 -0.577350 -0.577350
vn 0.301511 -0.301511 0.904534
vn 0.577350 -0.577350 -0.577350
vn 0.301511 -0.301511 -0.904534
vn 0.577350 0.577350 0.577350
vn 0.301511 0.301511 0.904534
vn 0.301511 0.301511 -0.904534
vn 0.577350 0.577350 0.577350
vn 0.301511 0.301511 -0.904534
vn 0.577350 0.577350 -0.577350
vn 0.577350 0.577350 -0.577350
vn -0.577350 0.577350 0.577350
vn 0.577350 0.577350 0.577350
vn 0.577350 -0.577350 0.577350
vn 0.301511 -0.301511 0.904534
vn -0.577350 -0.577350 0.577350
vn -0.577350 0.577350 0.577350
vn 0.301511 -0.301511 0.904534
vn 0.301511 0.301511 0.904534
vn -0.577350 0.577350 0.577350
vn 0.301511 0.301511 0.904534
vn 0.577350 0.577350 0.577350
f 1//1 2//2 3//3
f 1//4 3//5 4//6
f 1//7 4//8 5//9
f 6//10 7//11 3//12
f 3//13 8//14 4//15
f 6//16 3//17 2//18
f 1//19 9//20 2//21
f 10//22 11//23 12//24
f 13//25 12//26 11//27
f 14//28 1//29 5//30
f 15//31 11//32 16//33
f 10//34 16//35 11//36
f 7//37 17//38 16//39
f 7//40 16//41 8//42
f 18//43 15//44 17//45
f 16//46 17//47 15//48
f 8//49 3//50 7//51
f 5//52 4//53 8//54
f 16//55 10//56 12//57
f 16//58 12//59 19//60
f 13//61 11//62 15//63
f 12//64 13//65 19//66
f 19//67 9//68 8//69
f 19//70 8//71 16//72
f 20//73 13//74 15//75
f 15//76 18//77 21//78
f 15//79 21//80 20//81
f 17//82 7//83 22//84
f 17//85 22//86 23//87
f 22//88 9//89 19//90
f 22//91 19//92 23//93
f 18//94 17//95 23//96
f 18//97 23//98 21//99
f 23//100 19//101 20//102
f 21//103 23//104 20//105
f 13//106 20//107 19//108
f 9//109 14//110 5//111
f 9//112 5//113 8//114
f 24//115 22//116 7//117
f 24//118 7//119 6//120
f 6//121 2//122 24//123
f 14//124 9//125 1//126
f 2//127 9//128 22//129
f 2//130 22//131 24//132
